<?xml version="1.0" encoding="utf-8"?>
<!-- Generator: Adobe Illustrator 21.0.0, SVG Export Plug-In . SVG Version: 6.00 Build 0)  -->
<svg version="1.1" id="图层_1" xmlns="http://www.w3.org/2000/svg" xmlns:xlink="http://www.w3.org/1999/xlink" x="0px" y="0px"
	 viewBox="0 0 20 20" style="enable-background:new 0 0 20 20;" xml:space="preserve">
<style type="text/css">
	.st0{fill:#999999;}
</style>
<path class="st0" d="M5.9,7.7c0,0.4,0.3,0.7,0.7,0.7c0,0,0,0,0,0c0.1,1.9,1.6,3.8,3.4,3.8c1.8,0,3.3-1.9,3.4-3.8c0,0,0,0,0,0
	c0.4,0,0.7-0.3,0.7-0.7c0-0.3-0.2-0.5-0.4-0.7c0.1-0.4,0.2-0.9,0.2-1.3c0-2.3-1.8-4.2-3.9-4.2S6.1,3.4,6.1,5.7
	c0,0.5,0.1,0.9,0.2,1.3C6,7.1,5.9,7.4,5.9,7.7z M18.6,16.5c-1.6-1.6-3.6-2.7-5.7-3.2c-0.1,0-0.1,0-0.2,0h-0.2c-0.1,0-0.1,0-0.2,0
	c-0.6,0.3-1.5,0.5-2.4,0.5c-0.9,0-1.8-0.2-2.4-0.5c-0.1,0-0.1,0-0.2,0H7.3c0,0-0.1,0-0.1,0C5,13.8,3,14.9,1.4,16.5
	c-0.1,0.1-0.1,0.2-0.1,0.3v1.3c0,0.2,0.2,0.4,0.4,0.4h16.7c0.2,0,0.4-0.2,0.4-0.4v-1.3C18.7,16.7,18.7,16.6,18.6,16.5z"/>
</svg>
