<?xml version="1.0" encoding="utf-8"?>
<!-- Generator: Adobe Illustrator 21.0.0, SVG Export Plug-In . SVG Version: 6.00 Build 0)  -->
<svg version="1.1" id="图层_1" xmlns="http://www.w3.org/2000/svg" xmlns:xlink="http://www.w3.org/1999/xlink" x="0px" y="0px"
	 viewBox="0 0 48 48" style="enable-background:new 0 0 48 48;" xml:space="preserve">
<style type="text/css">
	.st0{display:none;}
	.st1{display:inline;}
	.st2{fill:#FFFFFF;}
	.st3{display:none;fill:#FFFFFF;}
</style>
<g id="关闭" class="st0">
	<path class="st1" d="M24,11.7c-7.7,0-13.7,4.6-21,12.1C9.3,30.2,14.6,36,24,36s16.3-7.2,21-12C40.2,18.4,33.3,11.7,24,11.7z
		 M24,32.5c-4.6,0-8.4-3.9-8.4-8.6c0-4.8,3.8-8.6,8.4-8.6s8.4,3.9,8.4,8.6S28.6,32.5,24,32.5z"/>
	<path class="st1" d="M24,20.8c0-0.8,0.3-1.4,0.7-2c-0.2,0-0.5-0.1-0.7-0.1c-2.7,0-4.9,2.3-4.9,5s2.2,5,4.9,5s4.9-2.3,4.9-5
		c0-0.2,0-0.4,0-0.7c-0.5,0.4-1.2,0.7-1.9,0.7C25.3,23.8,24,22.5,24,20.8z"/>
	<path class="st1" d="M12.6,42.3C12.2,42,12,41.4,12.3,41l22-34.8c0.3-0.4,0.9-0.6,1.3-0.3c0.4,0.3,0.6,0.9,0.3,1.3L13.9,42
		C13.6,42.4,13,42.5,12.6,42.3z"/>
</g>
<g id="显示">
	<path class="st2" d="M24,11.7c-7.7,0-13.7,4.6-21,12.1C9.3,30.2,14.6,36,24,36s16.3-7.2,21-12C40.2,18.4,33.3,11.7,24,11.7z
		 M24,32.5c-4.6,0-8.4-3.9-8.4-8.6c0-4.8,3.8-8.6,8.4-8.6s8.4,3.9,8.4,8.6S28.6,32.5,24,32.5z"/>
	<path class="st2" d="M24,20.8c0-0.8,0.3-1.4,0.7-2c-0.2,0-0.5-0.1-0.7-0.1c-2.7,0-4.9,2.3-4.9,5s2.2,5,4.9,5s4.9-2.3,4.9-5
		c0-0.2,0-0.4,0-0.7c-0.5,0.4-1.2,0.7-1.9,0.7C25.3,23.8,24,22.5,24,20.8z"/>
	<path class="st3" d="M12.6,42.3C12.2,42,12,41.4,12.3,41l22-34.8c0.3-0.4,0.9-0.6,1.3-0.3c0.4,0.3,0.6,0.9,0.3,1.3L13.9,42
		C13.6,42.4,13,42.5,12.6,42.3z"/>
</g>
</svg>
