<?xml version="1.0" standalone="no"?><!DOCTYPE svg PUBLIC "-//W3C//DTD SVG 1.1//EN" "http://www.w3.org/Graphics/SVG/1.1/DTD/svg11.dtd"><svg class="icon" width="48px" height="48.00px" viewBox="0 0 1024 1024" version="1.1" xmlns="http://www.w3.org/2000/svg"><path d="M487.872 297.984"  /><path d="M385.664 863.936l239.04 0 0 80.832-239.04 0 0-80.832Z"  /><path d="M789.632 359.872c0-154.752-129.28-280.64-288.128-280.64-158.912 0-288.256 125.888-288.256 280.64 0 31.552 5.376 62.592 15.936 92.096 49.472 140.672 263.68 352 272.256 360.384l26.304-26.944c0 0 93.44-101.504 99.712-108.992l8-9.408c71.872-86.144 118.464-158.464 138.304-214.976l8.768-25.088-1.216 0C786.816 405.056 789.632 382.656 789.632 359.872zM503.168 471.936c-67.712 0-122.688-55.04-122.688-122.752 0-67.648 54.976-122.688 122.688-122.688 67.648 0 122.688 55.04 122.688 122.688C625.856 416.896 570.816 471.936 503.168 471.936z"  /></svg>