<?xml version="1.0" encoding="utf-8"?>
<!-- Generator: Adobe Illustrator 21.0.0, SVG Export Plug-In . SVG Version: 6.00 Build 0)  -->
<svg version="1.1" id="图层_1" xmlns="http://www.w3.org/2000/svg" xmlns:xlink="http://www.w3.org/1999/xlink" x="0px" y="0px"
	 viewBox="0 0 42 36.6" style="enable-background:new 0 0 42 36.6;" xml:space="preserve">
<style type="text/css">
	.st0{fill:#FFFFFF;}
</style>
<title>关闭</title>
<g id="关闭">
	<path class="st0" d="M21,5.9C13.3,5.9,7.3,10.5,0,18c6.3,6.4,11.6,12.2,21,12.2s16.3-7.2,21-12C37.2,12.6,30.3,5.9,21,5.9z
		 M21,26.7c-4.7,0-8.6-3.9-8.6-8.6c0-4.7,3.9-8.6,8.6-8.6c4.7,0,8.6,3.9,8.6,8.6C29.6,22.9,25.7,26.7,21,26.7z"/>
	<path class="st0" d="M21,15c0-0.7,0.3-1.4,0.7-2c-0.2,0-0.5-0.1-0.7-0.1c-2.8-0.1-5,2.1-5.1,4.9c-0.1,2.8,2.1,5,4.9,5.1
		c2.8,0.1,5-2.1,5.1-4.9c0,0,0-0.1,0-0.1v-0.7c-0.5,0.4-1.2,0.7-1.9,0.7c-1.5,0.1-2.9-1.1-3-2.6C21,15.2,21,15.1,21,15z"/>
	<path class="st0" d="M9.6,36.5c-0.4-0.3-0.5-0.9-0.3-1.3l22-34.8c0.3-0.4,0.9-0.6,1.3-0.3s0.6,0.9,0.3,1.3l-22,34.8
		C10.6,36.6,10.1,36.7,9.6,36.5z"/>
</g>
</svg>
